<?xml version="1.0" standalone="no"?>
<!DOCTYPE svg PUBLIC "-//W3C//DTD SVG 20010904//EN"
 "http://www.w3.org/TR/2001/REC-SVG-20010904/DTD/svg10.dtd">
<svg version="1.0" xmlns="http://www.w3.org/2000/svg"
 width="46.000000pt" height="43.000000pt" viewBox="0 0 46.000000 43.000000"
 preserveAspectRatio="xMidYMid meet">
<metadata>
Created by potrace 1.16, written by Peter Selinger 2001-2019
</metadata>
<g transform="translate(0.000000,43.000000) scale(0.100000,-0.100000)"
fill="#000000" stroke="none">
<path d="M72 395 c-56 -27 -72 -40 -68 -53 2 -9 19 -73 36 -142 17 -69 36
-142 41 -162 9 -36 12 -38 49 -38 46 0 46 -1 21 98 l-19 73 31 20 c39 23 35
23 72 -1 62 -41 106 -24 179 70 47 60 58 90 31 90 -47 0 -145 -26 -145 -38 0
-10 13 -13 49 -10 58 4 57 -4 -8 -66 l-40 -39 -44 23 c-51 27 -96 23 -139 -13
l-28 -22 20 -75 c10 -41 17 -76 15 -79 -3 -2 -5 -2 -5 0 0 2 -18 71 -40 154
-21 82 -38 150 -37 151 33 23 98 54 112 54 11 0 34 -14 52 -32 24 -23 36 -29
44 -21 22 22 -49 93 -93 93 -7 0 -46 -16 -86 -35z"/>
</g>
</svg>
