<?xml version="1.0" standalone="no"?>
<!DOCTYPE svg PUBLIC "-//W3C//DTD SVG 20010904//EN"
 "http://www.w3.org/TR/2001/REC-SVG-20010904/DTD/svg10.dtd">
<svg version="1.0" xmlns="http://www.w3.org/2000/svg"
 width="43.000000pt" height="43.000000pt" viewBox="0 0 43.000000 43.000000"
 preserveAspectRatio="xMidYMid meet">
<metadata>
Created by potrace 1.16, written by Peter Selinger 2001-2019
</metadata>
<g transform="translate(0.000000,43.000000) scale(0.100000,-0.100000)"
fill="#000000" stroke="none">
<path d="M163 288 l-142 -143 -12 -67 c-7 -38 -10 -71 -6 -74 3 -3 39 1 79 10
72 16 76 19 152 95 72 72 87 101 53 101 -7 0 -39 -27 -72 -60 l-59 -60 -13 24
c-7 14 -22 27 -33 31 -11 3 -20 10 -20 14 0 4 56 60 124 124 l124 117 31 -29
c17 -16 31 -33 31 -37 0 -4 -12 -21 -27 -36 -21 -22 -24 -31 -15 -40 9 -9 19
-5 42 17 43 41 41 83 -5 124 -62 54 -73 48 -232 -111z"/>
</g>
</svg>
