<?xml version="1.0" standalone="no"?>
<!DOCTYPE svg PUBLIC "-//W3C//DTD SVG 20010904//EN"
 "http://www.w3.org/TR/2001/REC-SVG-20010904/DTD/svg10.dtd">
<svg version="1.0" xmlns="http://www.w3.org/2000/svg"
 width="49.000000pt" height="44.000000pt" viewBox="0 0 49.000000 44.000000"
 preserveAspectRatio="xMidYMid meet">
<metadata>
Created by potrace 1.16, written by Peter Selinger 2001-2019
</metadata>
<g transform="translate(0.000000,44.000000) scale(0.100000,-0.100000)"
fill="#000000" stroke="none">
<path d="M42 430 c-12 -5 -27 -21 -32 -35 -14 -36 -13 -228 1 -258 15 -34 49
-47 118 -47 54 0 64 -4 120 -45 34 -25 63 -45 66 -45 3 0 5 20 5 45 l0 45 59
0 c82 0 111 23 111 91 0 37 -4 49 -15 49 -10 0 -15 -10 -15 -34 0 -53 -20 -66
-100 -66 l-69 0 -3 -31 -3 -30 -40 30 c-35 27 -48 30 -107 31 -94 0 -98 6 -98
139 0 70 4 111 12 119 8 8 67 12 200 12 210 0 208 1 208 -74 0 -25 4 -36 15
-36 11 0 15 12 15 53 0 93 -11 97 -242 96 -101 0 -193 -4 -206 -9z"/>
</g>
</svg>
