<?xml version="1.0" standalone="no"?>
<!DOCTYPE svg PUBLIC "-//W3C//DTD SVG 20010904//EN"
 "http://www.w3.org/TR/2001/REC-SVG-20010904/DTD/svg10.dtd">
<svg version="1.0" xmlns="http://www.w3.org/2000/svg"
 width="49.000000pt" height="43.000000pt" viewBox="0 0 49.000000 43.000000"
 preserveAspectRatio="xMidYMid meet">
<metadata>
Created by potrace 1.16, written by Peter Selinger 2001-2019
</metadata>
<g transform="translate(0.000000,43.000000) scale(0.100000,-0.100000)"
fill="#000000" stroke="none">
<path d="M81 404 c-26 -33 -28 -116 -5 -162 22 -45 15 -63 -34 -90 l-42 -23 0
-65 0 -64 75 0 c60 0 75 3 75 15 0 12 -13 15 -61 15 l-60 0 3 37 c2 30 9 40
38 55 63 35 74 67 43 129 -21 42 -18 119 5 137 25 19 60 14 76 -11 18 -27 15
-79 -7 -131 -9 -21 -17 -44 -17 -50 0 -25 34 -58 91 -86 48 -25 59 -35 59 -55
0 -24 -2 -25 -65 -25 -51 0 -65 -3 -65 -15 0 -12 15 -15 79 -15 l80 0 4 43 4
42 1 -42 2 -43 65 0 65 0 0 59 c0 64 -6 73 -79 113 -31 17 -32 18 -16 47 40
78 0 170 -68 157 -18 -3 -40 -16 -49 -27 -22 -26 -23 -87 -4 -125 11 -19 12
-33 5 -46 -5 -10 -7 -23 -3 -29 3 -6 -8 -3 -25 6 -41 21 -48 39 -27 81 9 20
16 60 16 93 0 75 -24 101 -92 101 -38 0 -50 -5 -67 -26z m282 -114 c-2 -25 -4
-65 -5 -90 -3 -45 -3 -45 47 -71 45 -23 50 -29 53 -62 3 -36 3 -37 -32 -37
-35 0 -36 1 -36 40 0 30 -7 47 -25 65 -13 14 -28 25 -33 25 -6 0 -12 17 -16
38 -3 20 -8 54 -12 74 -9 53 0 70 33 66 26 -3 28 -6 26 -48z"/>
</g>
</svg>
