<?xml version="1.0" standalone="no"?>
<!DOCTYPE svg PUBLIC "-//W3C//DTD SVG 20010904//EN"
 "http://www.w3.org/TR/2001/REC-SVG-20010904/DTD/svg10.dtd">
<svg version="1.0" xmlns="http://www.w3.org/2000/svg"
 width="41.000000pt" height="50.000000pt" viewBox="0 0 41.000000 50.000000"
 preserveAspectRatio="xMidYMid meet">
<metadata>
Created by potrace 1.16, written by Peter Selinger 2001-2019
</metadata>
<g transform="translate(0.000000,50.000000) scale(0.100000,-0.100000)"
fill="#000000" stroke="none">
<path d="M143 370 c-50 -16 -83 -63 -83 -118 0 -38 7 -57 35 -96 28 -40 35
-59 35 -97 0 -33 4 -49 16 -53 28 -11 101 -6 112 7 5 6 12 39 14 72 2 51 0 60
-14 63 -21 4 -38 -33 -38 -79 0 -24 -4 -29 -25 -29 -23 0 -25 4 -25 43 0 34
-8 55 -35 93 -42 58 -45 95 -10 129 18 19 35 25 67 25 79 0 119 -50 92 -115
-13 -32 -13 -36 1 -41 38 -15 66 58 45 120 -6 20 -24 45 -40 56 -34 24 -102
33 -147 20z"/>
</g>
</svg>
