<?xml version="1.0" standalone="no"?>
<!DOCTYPE svg PUBLIC "-//W3C//DTD SVG 20010904//EN"
 "http://www.w3.org/TR/2001/REC-SVG-20010904/DTD/svg10.dtd">
<svg version="1.0" xmlns="http://www.w3.org/2000/svg"
 width="41.000000pt" height="42.000000pt" viewBox="0 0 41.000000 42.000000"
 preserveAspectRatio="xMidYMid meet">
<metadata>
Created by potrace 1.16, written by Peter Selinger 2001-2019
</metadata>
<g transform="translate(0.000000,42.000000) scale(0.100000,-0.100000)"
fill="#000000" stroke="none">
<path d="M275 411 c-11 -5 -44 -34 -73 -63 -47 -48 -51 -56 -37 -68 13 -11 24
-5 74 44 33 31 64 56 70 56 13 0 41 -29 41 -43 0 -16 -228 -242 -237 -234 -4
4 30 45 76 91 77 77 92 106 57 106 -7 0 -49 -38 -94 -84 -83 -84 -98 -116 -70
-144 31 -31 60 -14 185 111 104 104 123 128 123 154 0 57 -62 97 -115 74z"/>
<path d="M259 155 c-97 -97 -121 -115 -147 -115 -38 0 -76 42 -66 74 3 12 26
42 51 67 39 41 42 47 28 59 -14 11 -22 8 -57 -26 -72 -69 -83 -136 -30 -189
20 -20 35 -25 75 -25 l50 0 124 122 c67 67 123 128 123 135 0 34 -44 4 -151
-102z"/>
</g>
</svg>
